<svg xmlns="http://www.w3.org/2000/svg" viewBox="0 0 200 200" fill="none"
     stroke="#a87d33" stroke-width="2.6" stroke-linecap="round" stroke-linejoin="round">
  <path d="M62 40h76l-9 128a10 10 0 0 1-10 9H81a10 10 0 0 1-10-9z" fill="#fdf9f1"/>
  <path d="M66 84h68l-3 44H69z" fill="#f3e6cd" stroke="none"/>
  <path d="M65 70h70M67 106h66M69 140h62" stroke-width="1.6" opacity=".8"/>
  <ellipse cx="100" cy="40" rx="38" ry="9" fill="#f7f0e3"/>
  <g stroke-width="2">
    <rect x="78" y="52" width="20" height="18" rx="4" fill="#fff" opacity=".9"/>
    <rect x="104" y="58" width="18" height="16" rx="4" fill="#fff" opacity=".9"/>
    <rect x="88" y="76" width="18" height="16" rx="4" fill="#fff" opacity=".9"/>
  </g>
  <path d="M122 34l16-18" stroke-width="4"/>
  <ellipse cx="100" cy="182" rx="52" ry="7" fill="#f7f0e3" stroke-width="1.6"/>
</svg>
